# xmcd CD database file
#
# Track frame offsets:
#	182
#	20762
#	43167
#	53870
#	77735
#	102490
#	121295
#	147830
#	173375
#	189327
#	205912
#	228280
#
# Disc length: 3209 seconds
#
# Revision: 0
# Processed by: cddbd v1.5PL3 Copyright (c) Steve Scherf et al.
# Submitted via: CDex 1.51
#
DISCID=9d0c870c
DTITLE=The Blues Machine - Here We Are
DYEAR=1987
DGENRE=Blues
TTITLE0=Run here pretty baby
TTITLE1=Throw the bottles
TTITLE2=Don't be evil
TTITLE3=Feed up worker blues
TTITLE4=Talk is cheap
TTITLE5=On the road
TTITLE6=It must be Jelly
TTITLE7=Girl # 13
TTITLE8=I got nothing
TTITLE9=Cookin' time
TTITLE10=The girl for me
TTITLE11=I can't quit you
EXTD=YEAR: 1987
EXTT0=
EXTT1=
EXTT2=
EXTT3=
EXTT4=
EXTT5=
EXTT6=
EXTT7=
EXTT8=
EXTT9=
EXTT10=
EXTT11=
PLAYORDER=
